<svg width="1265" height="324" viewBox="0 0 1265 324" fill="none" xmlns="http://www.w3.org/2000/svg">
<path d="M59.5847 314.496L60.0327 305.536L91.8407 310.912L100.801 271.488L107.073 178.304L79.7447 120.96L45.6967 62.272L18.3687 22.4L0.000718653 27.776L0.448719 18.816H113.793L113.345 27.776L68.5447 22.4L99.0087 91.84L135.745 150.976L163.073 111.552L185.921 58.24L190.401 22.4L145.601 27.776L146.049 18.816H250.881L250.433 27.776L232.513 22.4L170.241 106.624L136.193 178.304L140.673 270.592L150.977 310.912L182.785 305.536L182.337 314.496H59.5847ZM354.068 314.496L352.724 281.344L356.308 236.544L330.324 312.704L282.388 323.456L241.172 302.848L234.452 264.768L238.484 253.568L283.732 229.376L356.308 187.712L353.172 134.848L309.716 112L260.884 122.304L247.444 187.264L238.036 184.128L264.916 99.456L320.916 81.536L372.436 99.904L390.356 136.192L383.188 196.224L390.356 281.344L397.076 310.912L422.164 305.536L421.716 314.496H354.068ZM268.052 249.984L270.292 277.76L293.14 290.752L337.94 279.552L357.204 203.392L289.108 230.72L268.052 249.984ZM492.962 323.456L453.09 314.048L441.442 232.96L450.85 232.064V272.384L500.13 290.752L549.41 280.896L553.89 252.224L543.138 229.824L462.498 207.872L443.682 183.68L442.786 159.488L467.874 96.32L513.57 81.536L552.994 90.048L562.85 160.384L553.442 161.28L553.89 121.408L507.746 113.792L461.602 122.752L458.466 144.256L471.906 168L549.41 187.712L569.122 211.904L571.362 235.648L543.138 308.672L492.962 323.456ZM807.199 314.496L807.647 305.536L828.255 310.912L836.319 281.344L842.591 208.32L838.111 129.472L815.711 115.584L782.559 124.544L763.743 201.6L770.463 281.344L777.183 310.912L799.583 305.536L799.135 314.496H701.919L702.367 305.536L722.527 310.912L731.039 281.344L737.311 209.664L732.383 129.472L710.431 115.584L677.279 124.544L658.015 201.152L665.183 281.344L671.903 310.912L693.855 305.536L693.407 314.496H589.023L589.471 305.536L617.247 310.912L625.759 281.344L632.031 208.768L627.999 144.704L626.207 132.608L613.663 128.576L574.239 172.928L568.415 165.76L661.599 81.536L666.975 84.224L660.703 133.952L658.463 169.344L685.791 90.496L727.455 81.536L768.671 106.624L764.191 168.448L791.071 90.496L832.735 81.536L873.951 106.624L868.127 193.088L875.743 281.344L882.463 310.912L909.343 305.536L908.895 314.496H807.199ZM917.148 314.496L917.596 305.536L945.372 310.912L953.884 281.344L960.156 208.768L956.124 144.704L954.332 132.608L941.788 128.576L902.364 172.928L896.54 165.76L989.724 81.536L995.1 84.672L990.172 133.952L985.692 193.984L993.308 281.344L1000.03 310.912L1029.15 305.536L1028.7 314.496H917.148ZM973.596 63.168L953.884 43.456L950.3 10.304L973.596 -7.62939e-06L996.444 10.304L992.86 43.456L973.596 63.168ZM1154.43 314.496L1154.88 305.536L1183.1 310.912L1191.17 281.344L1197.89 211.456L1191.61 130.816L1162.49 115.584L1124.86 125.888L1104.7 201.6L1111.87 281.344L1118.59 310.912L1146.81 305.536L1146.37 314.496H1035.71L1036.16 305.536L1063.93 310.912L1072.45 281.344L1078.72 208.768L1074.69 144.704L1072.89 132.608L1060.35 128.576L1020.93 172.928L1015.1 165.76L1108.29 81.536L1113.66 84.224L1107.39 133.952L1104.7 170.688L1132.03 92.736L1180.41 81.536L1229.25 109.312L1223.42 193.536L1230.59 281.344L1237.31 310.912L1264.64 305.536L1264.19 314.496H1154.43Z" fill="#202529"/>
</svg>
